<svg id="Layer_1" data-name="Layer 1" xmlns="http://www.w3.org/2000/svg" xmlns:xlink="http://www.w3.org/1999/xlink" viewBox="0 0 2973.99 1084.17"><defs><style>.cls-1{fill:none;}.cls-2{clip-path:url(#clip-path);}.cls-3{clip-path:url(#clip-path-2);}.cls-4{fill:#ddeef2;}.cls-5{clip-path:url(#clip-path-3);}</style><clipPath id="clip-path" transform="translate(1041.24 2.14)"><rect class="cls-1" x="0.12" y="0.04" width="1919.88" height="1079.96"/></clipPath><clipPath id="clip-path-2" transform="translate(1041.24 2.14)"><rect class="cls-1" x="492.23" y="0.04" width="1427.77" height="1119.75"/></clipPath><clipPath id="clip-path-3" transform="translate(1041.24 2.14)"><rect class="cls-1" x="-918.95" y="0.04" width="1427.77" height="1119.75"/></clipPath></defs><g class="cls-2"><g class="cls-3"><path class="cls-4" d="M1144.45,976.18V.77s29.47,71.45,65.84,19S1260.67,85.48,1293,46s4.18-9.91,28,8.17,43.38-19.69,56-18.08,26.65,51,47.66,34.55,32.19-46.07,64.39-18.08,88.21,23,72.85-24.64,30.83,28,74.21,19.69,33.65-34.41,49-19.69,61.67,16.48,63-1.6,33.86,59.78,64.49,0c8.36-16.48,5.64,32.8,18.18,42.72s55.92,9.33,79.86-50.89c19.65-49.28,16.83,72.32,16.83,72.32l.31,885.89H1144.45Z" transform="translate(1041.24 2.14)"/><path class="cls-4" d="M369.94,973.26V-2.14s29.47,71.44,65.85,19,50.38,65.76,82.67,26.25,4.18-9.92,28,8.16,43.38-19.68,56-18.08,26.65,51,47.66,34.56,32.19-46.08,64.39-18.08,88.21,23,72.85-24.64,30.83,28,74.21,19.68,33.66-34.41,49-19.68,61.67,16.47,63-1.61,33.86,59.78,64.38,0c8.36-16.47,5.65,33,18.19,42.72s55.92,9.33,79.85-50.88c19.65-49.28,16.83,72.32,16.83,72.32l.32,885.88H369.94Z" transform="translate(1041.24 2.14)"/><path class="cls-4" d="M1158.24,103.71v975.41s-29.47-71.45-65.85-19-50.38-65.75-82.67-26.24-4.18,9.91-28-8.17-43.38,19.69-56,18.08S899,992.8,878,1009.28s-32.19,46.07-64.39,18.08-88.21-23-72.85,24.64-30.83-28-74.21-19.69-33.66,34.56-49,19.69-61.67-16.48-63,1.6-33.86-59.78-64.49,0c-8.36,16.48-5.64-32.8-18.18-42.72s-55.92-9.18-80,51c-19.55,49.28-16.73-72.32-16.73-72.32l-.31-885.88Z" transform="translate(1041.24 2.14)"/><path class="cls-4" d="M1932.75,106.62V1082s-29.47-71.44-65.85-19-50.38-65.76-82.67-26.25-4.19,9.92-28-8.16-43.48,19.68-56,18.08-26.65-51-47.66-34.56-32.19,46.08-64.49,18.08-88.22-23-72.85,24.64-30.84-28-74.21-19.68-33.66,34.55-49,19.68-61.66-16.47-63,1.61-33.87-59.78-64.49,0c-8.36,16.47-5.65-32.81-18.19-42.72s-55.92-9.19-80,50.88c-19.54,49.28-16.72-72.32-16.72-72.32l-.32-885.88Z" transform="translate(1041.24 2.14)"/></g><g class="cls-5"><path class="cls-4" d="M-266.73,976.18V.77s29.48,71.45,65.85,19S-150.5,85.48-118.2,46s4.18-9.91,28,8.17,43.38-19.69,56-18.08,26.66,51,47.67,34.55S45.69,24.54,77.88,52.53s88.22,23,72.85-24.64,30.84,28,74.21,19.69,33.66-34.41,49-19.69,61.66,16.48,63-1.6,33.87,59.78,64.49,0c8.36-16.48,5.65,32.8,18.19,42.72s55.92,9.33,79.85-50.89c19.65-49.28,16.83,72.32,16.83,72.32l.32,885.89h-783.4Z" transform="translate(1041.24 2.14)"/><path class="cls-4" d="M-1041.24,973.26V-2.14s29.48,71.44,65.85,19S-925,82.57-892.71,43.06s4.18-9.92,28,8.16,43.38-19.68,56-18.08S-782,84.17-761,67.7s32.19-46.08,64.38-18.08,88.22,23,72.86-24.64,30.83,28,74.21,19.68,33.65-34.41,49-19.68,61.66,16.47,63-1.61,33.87,59.78,64.39,0c8.36-16.47,5.64,33,18.19,42.72s55.92,9.33,79.85-50.88c19.65-49.28,16.83,72.32,16.83,72.32l.31,885.88h-783.29Z" transform="translate(1041.24 2.14)"/><path class="cls-4" d="M-252.93,103.71v975.41s-29.48-71.45-65.85-19-50.38-65.75-82.68-26.24-4.18,9.91-28-8.17-43.37,19.69-56,18.08-26.66-51-47.66-34.55-32.2,46.07-64.39,18.08-88.22-23-72.85,24.64-30.84-28-74.21-19.69-33.66,34.56-49,19.69-61.67-16.48-63,1.6-33.87-59.78-64.49,0c-8.36,16.48-5.64-32.8-18.19-42.72s-55.92-9.18-80,51c-19.54,49.28-16.72-72.32-16.72-72.32l-.31-885.88Z" transform="translate(1041.24 2.14)"/><path class="cls-4" d="M521.58,106.62V1082s-29.48-71.44-65.85-19-50.38-65.76-82.68-26.25-4.18,9.92-28-8.16-43.48,19.68-56,18.08-26.66-51-47.67-34.56-32.19,46.08-64.49,18.08-88.21-23-72.85,24.64-30.83-28-74.21-19.68-33.65,34.55-49,19.68-61.67-16.47-63,1.61-33.86-59.78-64.49,0c-8.36,16.47-5.64-32.81-18.18-42.72s-55.92-9.19-80,50.88c-19.55,49.28-16.73-72.32-16.73-72.32l-.31-885.88Z" transform="translate(1041.24 2.14)"/></g></g></svg>