<svg id="Layer_1" data-name="Layer 1" xmlns="http://www.w3.org/2000/svg" viewBox="0 0 511.99 490.7"><defs><style>.cls-1{fill:#215aa3;}</style></defs><path class="cls-1" d="M508.89,195.11l-42.67-42.66a10.68,10.68,0,0,0-7.55-3.12H448V138.66a10.77,10.77,0,0,0-3.11-7.55L359.55,45.78C342.44,28.67,313.77,0,256,0S171.8,26.48,152.45,45.78A10.68,10.68,0,0,0,160,64c86,0,96,36.52,96,64,0,22.83-12.93,40.21-21.18,49.07l69.69,69.69c18.86-12.75,45.65-27.82,58.16-26.71v14.62a10.77,10.77,0,0,0,3.11,7.55l53.33,53.33a10.72,10.72,0,0,0,7.56,3.12H427a10.55,10.55,0,0,0,7.66-3.63l74.67-85.33A10.71,10.71,0,0,0,508.89,195.11Z" transform="translate(0 0)"/><path class="cls-1" d="M16.13,395.46C5.74,405.85,0,419.67,0,435.63a55,55,0,0,0,95.76,37l192.6-211.86L219.58,192Z" transform="translate(0 0)"/></svg>