<svg width="1038" height="1539" viewBox="0 0 1038 1539" fill="none" xmlns="http://www.w3.org/2000/svg">
<path d="M1038 0H3.00407e-05C3.00407e-05 0 76.0269 57.8006 20.1704 129.229C-35.6861 200.657 89.9911 228.412 48.0987 291.705C6.20631 354.998 37.6101 299.958 56.834 346.745C76.058 393.532 35.8568 432.065 37.6101 456.825C39.3633 481.584 91.8219 509.133 74.3357 550.398C56.8495 591.663 25.3527 613.691 55.0963 677.013C84.8399 740.335 79.58 850.298 28.8592 820.105C-21.8616 789.912 58.5873 880.666 49.852 965.958C41.1166 1051.25 13.1108 1032.01 28.8592 1062.29C44.6076 1092.57 46.3454 1183.39 27.1059 1186.12C7.86644 1188.85 90.7203 1252.64 27.1059 1312.73C9.61971 1329.24 62.0939 1323.75 72.5825 1348.5C83.0711 1373.26 82.4815 1458.29 18.3707 1505.37C-34.1034 1543.9 95.3129 1538.38 95.3129 1538.38L1038 1539V0Z" fill="#DDEDF1"/>
</svg>
