<svg width="505" height="796" viewBox="0 0 505 796" fill="none" xmlns="http://www.w3.org/2000/svg">
<path d="M0 0H505C505 0 468.012 29.8956 495.187 66.8397C522.362 103.784 461.218 118.139 481.599 150.875C501.981 183.612 486.702 155.144 477.35 179.343C467.997 203.542 487.555 223.472 486.702 236.278C485.849 249.084 460.328 263.333 468.835 284.676C477.342 306.019 492.666 317.413 478.195 350.164C463.724 382.915 466.283 439.79 490.96 424.174C515.636 408.558 476.497 455.497 480.746 499.612C484.996 543.726 498.621 533.776 490.96 549.437C483.298 565.099 482.452 612.069 491.813 613.482C501.173 614.895 460.863 647.889 491.813 678.97C500.32 687.507 474.791 684.666 469.688 697.472C464.585 710.278 464.872 754.256 496.062 778.606C521.592 798.537 458.629 795.681 458.629 795.681L0 796V0Z" fill="#DDEDF1"/>
</svg>
