<svg width="0" height="0" viewBox="0 0 505 796" fill="none" xmlns="http://www.w3.org/2000/svg">
<path d="M505 0H0C0 0 36.988 29.8956 9.81314 66.8397C-17.3618 103.784 43.7817 118.139 23.4006 150.875C3.01941 183.612 18.2978 155.144 27.6505 179.343C37.0031 203.542 17.4448 223.472 18.2977 236.278C19.1507 249.084 44.6725 263.333 36.1652 284.676C27.658 306.019 12.3344 317.413 26.805 350.164C41.2756 382.915 38.7166 439.79 14.0403 424.174C-10.636 408.558 28.5034 455.497 24.2536 499.612C20.0037 543.726 6.37851 533.776 14.0403 549.438C21.7021 565.099 22.5476 612.069 13.1873 613.482C3.82709 614.895 44.1365 647.889 13.1873 678.97C4.68008 687.507 30.2094 684.666 35.3123 697.472C40.4151 710.278 40.1283 754.256 8.93753 778.606C-16.5918 798.537 46.3709 795.681 46.3709 795.681L505 796V0Z" fill="#DDEDF1"/>
</svg>
