<svg id="Layer_1" data-name="Layer 1" xmlns="http://www.w3.org/2000/svg" viewBox="0 0 669 524"><defs><style>.cls-1{fill:#ddedf1;}</style></defs><path class="cls-1" d="M669,524H0s49-19.68,13-44,45.09-33.73,18-55.28-6.76-2.81,5.63-18.74S23.11,376.93,24.24,368.5s34.94-17.81,23.67-31.86-31.57-21.55-12.4-43.11,15.78-59-16.91-48.72,19.16-20.62,13.53-49.66S8.45,172.66,18.6,162.35s11.27-41.23-1.13-42.16,41-22.65,0-43.11C6.2,71.46,40,73.33,46.78,64.9s6.38-37.38-34.94-53.41C-22-1.63,61.43.25,61.43.25L669,0Z" transform="translate(0 0)"/></svg>