<svg id="Layer_1" data-name="Layer 1" xmlns="http://www.w3.org/2000/svg" viewBox="0 0 309.71 450.55"><defs><style>.cls-1{fill:#215aa3;}</style></defs><path class="cls-1" d="M383.72,24.64,334,24.8a8.78,8.78,0,0,0-6.21,2.6l-6.2,6.23-6.24-6.19a8.84,8.84,0,0,0-6.22-2.57l-99.46.31c-19.95.06-53.37.16-86.93,33.94s-33.44,64.61-33.4,87.13a8.8,8.8,0,0,0,15,6.17c50-50.27,77.12-34.9,93.19-18.93,13.35,13.26,16,30.92,16.38,40.89l81.23-.25c3.51-18.44,10.26-42.85,18.18-49.52l8.54,8.49a8.9,8.9,0,0,0,6.23,2.57l62.16-.19a8.83,8.83,0,0,0,6.21-2.61l.19-.19a8.67,8.67,0,0,0,2.33-6.59l-6.5-93.23A8.81,8.81,0,0,0,383.72,24.64Z" transform="translate(-89.33 -24.64)"/><path class="cls-1" d="M207.14,427.79c-.33,12.11,4.06,23.63,13.11,33.18a45.33,45.33,0,0,0,78.28-32.11l-4.77-235.94-80.14-2.19Z" transform="translate(-89.33 -24.64)"/></svg>