<svg id="Layer_1" data-name="Layer 1" xmlns="http://www.w3.org/2000/svg" viewBox="0 0 512.01 490.67"><defs><style>.cls-1{fill:#223047;}</style></defs><path class="cls-1" d="M508.89,205.78l-42.67-42.66a10.65,10.65,0,0,0-7.55-3.12H448V149.33a10.77,10.77,0,0,0-3.11-7.55L359.55,56.45C342.44,39.34,313.77,10.67,256,10.67S171.8,37.15,152.45,56.45A10.68,10.68,0,0,0,160,74.67c86,0,96,36.52,96,64,0,22.83-12.93,40.21-21.18,49.07l69.69,69.69c18.86-12.75,45.65-27.82,58.16-26.71v14.62a10.77,10.77,0,0,0,3.11,7.55l53.33,53.33a10.74,10.74,0,0,0,7.56,3.12H427a10.55,10.55,0,0,0,7.66-3.63l74.67-85.33A10.71,10.71,0,0,0,508.89,205.78Z" transform="translate(0 -10.67)"/><path class="cls-1" d="M16.13,406.13C5.74,416.52,0,430.34,0,446.3a55,55,0,0,0,95.76,37l192.6-211.86-68.78-68.8Z" transform="translate(0 -10.67)"/></svg>