<svg id="outline" xmlns="http://www.w3.org/2000/svg" viewBox="0 0 512 512"><defs><style>.cls-1{fill:#215aa3;}</style></defs><path class="cls-1" d="M64,416a32,32,0,1,0,32,32A32,32,0,0,0,64,416Zm0,48a16,16,0,1,1,16-16A16,16,0,0,1,64,464Z" transform="translate(0 0.01)"/><path class="cls-1" d="M505,149.65l-72-72a24,24,0,0,0-32.92-.92L389.66,66.34a8,8,0,0,0-9.78-1.2l-12.56,7.54,7.54-12.56a8,8,0,0,0-1.2-9.78l-48-48a8,8,0,0,0-11.31,0h0L200,116.69l-2.34-2.35a8,8,0,0,0-11.31,0h0l-32,32-19.19,19.19a40.25,40.25,0,0,0-10.52,38L147,293.14a23.91,23.91,0,0,1-9,25.14L24.81,401.67A61.27,61.27,0,0,0,0,450.78V451a61,61,0,0,0,110.34,35.86L192.92,373.2A24.06,24.06,0,0,1,217,363.76l84.69,16.77a40,40,0,0,0,36.05-10.95l19.92-19.92,32-32a8,8,0,0,0,0-11.31h0L387.31,304,416,275.31V336a32,32,0,0,0,64,0V294.64A24,24,0,0,0,512,272V166.63A23.9,23.9,0,0,0,505,149.65ZM326.42,358.26a24,24,0,0,1-21.63,6.57l-84.68-16.76A40.12,40.12,0,0,0,180,363.79L97.4,477.45A45,45,0,0,1,16,451v-.22a45.18,45.18,0,0,1,18.3-36.23l113.18-83.39a39.86,39.86,0,0,0,15.08-41.9l-22.4-89.62a24.06,24.06,0,0,1,6.31-22.79L160,163.31,340.69,344ZM352,332.69,171.31,152,192,131.31,372.69,312Zm24-40L211.31,128,320,19.31l37.93,37.93L337.14,91.88a8,8,0,0,0,11,11l34.64-20.79L388.69,88,359,117.65a23.88,23.88,0,0,0-7,17V240a24,24,0,0,0,48,0v-8a8,8,0,0,1,16,0v20.69ZM496,272a8,8,0,0,1-16,0,8,8,0,0,0-16,0v64a16,16,0,0,1-32,0V232a24,24,0,0,0-48,0v8a8,8,0,0,1-16,0V134.63a7.9,7.9,0,0,1,2.35-5.66l40-40a8,8,0,0,1,11.3,0l72,72a7.9,7.9,0,0,1,2.35,5.66Z" transform="translate(0 0.01)"/></svg>