<svg id="Layer_1" data-name="Layer 1" xmlns="http://www.w3.org/2000/svg" xmlns:xlink="http://www.w3.org/1999/xlink" viewBox="0 0 1495.16 743.61"><defs><style>.cls-1{fill:none;}.cls-2{clip-path:url(#clip-path);}.cls-3{fill:#ddeef2;}</style><clipPath id="clip-path" transform="translate(0 -6.93)"><rect class="cls-1" x="117" y="8.43" width="1366" height="768"/></clipPath></defs><g class="cls-2"><path class="cls-3" d="M741,677.93V8.93s28.15,49,63,13,48.25,45.09,79.08,18,4-6.77,26.8,5.63S951.43,32,963.49,33.16s25.47,35,45.57,23.68,30.82-31.57,61.64-12.41,84.44,15.78,69.7-16.91,29.48,19.16,71,13.53,32.2-23.62,46.94-13.52,59,11.27,60.31-1.13,32.4,41,61.65,0c8-11.27,5.36,22.55,17.43,29.31s53.46,6.38,76.39-34.94c18.76-33.82,16.08,49.59,16.08,49.59l.3,607.57Z" transform="translate(0 -6.93)"/><path class="cls-3" d="M0,675.93V6.93s28.15,49,63,13,48.25,45.09,79.08,18,4-6.77,26.8,5.63S210.43,30,222.49,31.16s25.47,35,45.57,23.68,30.82-31.57,61.64-12.41,84.44,15.78,69.7-16.91,29.48,19.16,71,13.53,32.2-23.62,46.94-13.52,59,11.27,60.31-1.13,32.4,41,61.65,0c8-11.27,5.36,22.55,17.43,29.31s53.46,6.38,76.39-34.94C751.88-15,749.2,68.36,749.2,68.36l.3,607.57Z" transform="translate(0 -6.93)"/><path class="cls-3" d="M754.16,79.54v669s-28.15-49-63-13-48.25-45.09-79.08-18-4,6.77-26.8-5.63-41.55,13.52-53.61,12.4-25.47-35-45.57-23.68S455.27,732.2,424.45,713s-84.44-15.78-69.7,16.91-29.48-19.16-71-13.53-32.17,23.68-46.91,13.53-59-11.27-60.31,1.13-32.4-41-61.65,0c-8,11.27-5.36-22.55-17.43-29.31S44,695.43,21,736.7C2.28,770.52,5,687.11,5,687.11L4.7,79.54Z" transform="translate(0 -6.93)"/><path class="cls-3" d="M1495.16,81.54v669s-28.15-49-63-13-48.25-45.09-79.08-18-4,6.77-26.8-5.63-41.55,13.52-53.61,12.4-25.47-35-45.57-23.68-30.83,31.57-61.65,12.4-84.44-15.78-69.7,16.91-29.48-19.16-71-13.53-32.17,23.68-46.91,13.53-59-11.27-60.31,1.13-32.4-41-61.65,0c-8,11.27-5.36-22.55-17.43-29.31S785,697.43,762,738.7c-18.72,33.82-16-49.59-16-49.59l-.3-607.57Z" transform="translate(0 -6.93)"/></g></svg>